<?xml version="1.0" encoding="UTF-8"?>
<svg width="49.213mm" height="7.9375mm" version="1.1" viewBox="0 0 49.212502 7.9375005" xmlns="http://www.w3.org/2000/svg">
 <g transform="translate(-11.724 -25.827)">
  <path d="m13.582 25.83c-0.09414-0.03878-0.36224 0.26654-0.48746 0.30184-0.3645 0.10278-0.64219 0.19422-0.85911 0.30412-0.29006 0.15315-0.50788 0.39594-0.51172 0.71266 0 1.0868 0.25839 2.0741 0.69342 2.8096 0.38469 0.65038 0.92352 1.1204 1.5557 1.2206v0.74822c0 0.59903 0.22245 1.0671 0.56023 1.377 0.33778 0.30988 0.78176 0.46099 1.2253 0.46006 0.44352-7.22e-4 0.89186-0.15402 1.2294-0.46416 0.37082-0.42438 0.54656-0.67867 0.55611-1.3888 0 0-0.0603-0.7544 0-1.2407 0.04148-0.33455 0.15988-0.5976 0.23801-0.74458 0.09501 0.04135 0.20032 0.06428 0.31032 0.06428 0.42728 0 0.77398-0.34813 0.77398-0.77239s-0.3467-0.76874-0.77398-0.76874-0.7781 0.34448-0.7781 0.76874c0 0.19346 0.07411 0.37225 0.19361 0.50794-0.0888 0.16468-0.24337 0.49377-0.2943 0.90462-0.04919 0.43466-0.0331 0.8732-0.0041 1.3086-0.0028 0.50881-0.18396 0.871-0.4513 1.1166-0.26959 0.24771-0.63363 0.37539-0.99963 0.37616-0.366 7.25e-4 -0.73027-0.12496-0.99963-0.37206-0.2694-0.24712-0.4513-0.61335-0.4513-1.1326v-0.73227c0.70633-0.03543 1.3138-0.5281 1.7329-1.2366 0.43503-0.7355 0.69342-1.7228 0.69342-2.8096-0.03688-0.35784-0.31484-0.55605-0.58861-0.6885-0.21513-0.10321-0.53033-0.205-0.84035-0.3096-0.14012-0.04728-0.44562-0.43789-0.487-0.27676l-0.18858 0.73409c-0.04154 0.16173 0.45043 0.02555 0.58815 0.07205 0.30401 0.10262 0.51941 0.17278 0.69434 0.2567 0.11594 0.04865 0.21681 0.123 0.28606 0.21202 0 1.0025-0.24216 1.9073-0.61699 2.541-0.37483 0.63371-0.85913 0.97666-1.3539 0.97666s-0.97541-0.34295-1.3502-0.97666c-0.37483-0.63371-0.61699-1.5385-0.61699-2.541 0.01121-0.12861 0.13178-0.19389 0.22199-0.24029 0.15439-0.07822 0.4017-0.16257 0.74789-0.26218 0.14118-0.04062 0.61398 0.13956 0.56984-0.0342l-0.18857-0.7423c-0.0054-0.02137-0.01539-0.03412-0.02883-0.03968zm31.458 1.1887c-0.63665 0-1.1295 0.17525-1.4784 0.52526-0.3471 0.34822-0.52087 0.84735-0.52087 1.4974 0 0.48751 0.09922 0.88757 0.29705 1.2001 0.19783 0.3125 0.43239 0.53112 0.70395 0.65612 0.27336 0.12322 0.62518 0.18466 1.055 0.18466 0.35429 0 0.64536-0.05096 0.87376-0.15274 0.2302-0.10179 0.4225-0.2523 0.57717-0.45231 0.15467-0.2 0.26814-0.44909 0.34008-0.74731l-1.071-0.32145c-0.05395 0.24822-0.14131 0.43731-0.26181 0.56767-0.1187 0.13036-0.29485 0.1956-0.52865 0.1956-0.24099 0-0.42806-0.08048-0.56115-0.2412-0.13308-0.1625-0.19956-0.4616-0.19956-0.89732 0-0.35179 0.05602-0.60993 0.16752-0.77422 0.14747-0.22143 0.35971-0.33194 0.63667-0.33194 0.1223 0 0.23292 0.02478 0.33184 0.07477 0.09891 0.05001 0.18248 0.12144 0.25082 0.2143 0.04136 0.05536 0.08078 0.14299 0.11855 0.26263l1.0793-0.23846c-0.13848-0.41429-0.35072-0.72148-0.63667-0.92149-0.28415-0.2-0.67539-0.30002-1.1736-0.30002zm-23.403 0.06702v3.9272h1.4271c0.23919 0 0.45048-0.02239 0.63392-0.06703 0.18524-0.04464 0.34286-0.10989 0.47235-0.19561 0.13129-0.0875 0.25142-0.2061 0.36113-0.3561 0.1097-0.15179 0.19991-0.34323 0.27004-0.57359s0.10527-0.49469 0.10527-0.79291c0-0.35001-0.05224-0.66054-0.15654-0.93198-0.10251-0.27322-0.25824-0.49753-0.46686-0.67254-0.16006-0.13572-0.35331-0.22908-0.57991-0.28087-0.16186-0.03751-0.39642-0.05654-0.70395-0.05654zm7.7819 0v3.9272h3.1293v-0.96708h-1.9073v-2.9601zm3.4589 0v0.7423h1.0976v-0.7423zm5.0966 0v3.9272h1.1223v-0.73956l0.41285-0.4017 0.57991 1.1413h1.2381l-1.087-1.8484 1.0275-0.99626h-1.3511l-0.82021 0.94292v-2.0254zm9.2324 0v3.9272h1.098v-1.3665c0-0.25893 0.04131-0.43803 0.12404-0.53803 0.08274-0.1 0.19097-0.15001 0.32406-0.15001 0.1205 0 0.21403 0.03716 0.28057 0.11217 0.06654 0.07321 0.09978 0.19941 0.09978 0.37799v1.5644h1.1031v-1.8083c0-0.37322-0.0864-0.64994-0.25906-0.8303-0.17085-0.18036-0.40541-0.27038-0.70395-0.27038-0.20143 0-0.37569 0.03287-0.52316 0.09894-0.14747 0.06608-0.29608 0.17608-0.44535 0.32966v-1.4467zm10.377 0v3.9272h1.1223v-0.73956l0.41285-0.4017 0.57991 1.1413h1.2381l-1.0871-1.8484 1.0275-0.99626h-1.3516l-0.81975 0.94292v-2.0254zm-35.423 0.46371h0.83074c0.31113 0 0.53667 0.02668 0.67695 0.08025 0.19423 0.075 0.35898 0.22313 0.49386 0.44456 0.13668 0.21965 0.20505 0.53493 0.20505 0.94565 0 0.29643-0.03514 0.54887-0.10527 0.7578-0.06833 0.20715-0.16472 0.37241-0.28881 0.49562-0.08813 0.0875-0.20682 0.1556-0.3561 0.20381-0.14747 0.04822-0.35118 0.07205-0.61195 0.07205h-0.84446zm4.2599 0.55444c-0.1133 0-0.21775 0.03192-0.31307 0.09621-0.09352 0.06428-0.19607 0.19717-0.30758 0.39896v-0.43088h-0.43665v2.8447h0.48562v-1.4896c0-0.20357 0.0266-0.39076 0.08056-0.56219 0.03597-0.1125 0.09626-0.20013 0.18079-0.26263 0.08452-0.06428 0.17996-0.09666 0.28607-0.09666 0.1187 0 0.2374 0.03476 0.35609 0.10442l0.16706-0.44729c-0.16906-0.10357-0.33525-0.15503-0.4989-0.15503zm10.121 0c-0.2248 0-0.41521 0.04096-0.57167 0.12311-0.15647 0.08036-0.31125 0.21514-0.46411 0.40443v-0.46325h-1.0225v2.8447h1.098v-1.3665c0-0.25893 0.04131-0.43803 0.12404-0.53803 0.08274-0.1 0.19097-0.15001 0.32406-0.15001 0.1205 0 0.21403 0.03716 0.28057 0.11217 0.06654 0.07321 0.09978 0.19941 0.09978 0.37799v1.5644h1.1031v-1.8083c0-0.37501-0.08642-0.65172-0.25906-0.8303-0.17085-0.18036-0.40825-0.27038-0.71219-0.27038zm15.638 0c-0.50536 0-0.90183 0.13718-1.1896 0.41218-0.28595 0.275-0.42933 0.63506-0.42933 1.0797 0 0.3125 0.07121 0.58493 0.21329 0.81707 0.14388 0.23036 0.32477 0.39897 0.54238 0.50611 0.21761 0.10536 0.5158 0.15822 0.89527 0.15822 0.43702 0 0.7727-0.0619 1.0065-0.18512 0.2338-0.125 0.43322-0.33028 0.59868-0.616l-1.0816-0.09894c-0.06834 0.08572-0.13243 0.14526-0.19178 0.17919-0.09712 0.05357-0.19967 0.08025-0.30758 0.08025-0.17085 0-0.30903-0.06144-0.41514-0.18466-0.07553-0.08572-0.12348-0.21621-0.14326-0.39121h2.2016v-0.12311c0-0.37501-0.0622-0.67935-0.18629-0.91328s-0.30453-0.41253-0.54192-0.53575c-0.2374-0.12322-0.56121-0.18466-0.97125-0.18466zm3.5477 0c-0.33451 0-0.60894 0.04336-0.82295 0.13086-0.13488 0.05536-0.26594 0.14059-0.39363 0.25488-0.12769 0.1125-0.22835 0.24014-0.30208 0.383-0.10071 0.19465-0.15104 0.43804-0.15104 0.7309 0 0.28036 0.04131 0.50563 0.12404 0.67527 0.08274 0.16965 0.19669 0.31777 0.34236 0.44456 0.14567 0.12501 0.31944 0.21598 0.52087 0.27312 0.20322 0.05536 0.45677 0.08299 0.76071 0.08299 0.31472 0 0.5735-0.04336 0.77673-0.13086 0.20502-0.0875 0.37356-0.2099 0.50485-0.36704 0.13129-0.15893 0.22531-0.34658 0.28286-0.56265l-1.044-0.11764c-0.04855 0.15179-0.12216 0.26419-0.22107 0.33741-0.09712 0.07322-0.21771 0.10989-0.36159 0.10989-0.17265 0-0.31462-0.06096-0.42612-0.18238-0.1115-0.12143-0.16706-0.29908-0.16706-0.53301 0-0.2625 0.05555-0.45824 0.16706-0.58682 0.1133-0.13036 0.26096-0.19515 0.4426-0.19515 0.14388 0 0.25784 0.03097 0.34236 0.09347 0.08632 0.06072 0.14567 0.15169 0.17805 0.27312l1.0335-0.13633c-0.09892-0.31965-0.27173-0.56254-0.51812-0.72862-0.24459-0.16608-0.60069-0.24895-1.0683-0.24895zm-22.849 0.06428v2.8447h1.0976v-2.8447zm-14.785 0.47329c0.32272 0 0.58037 0.2559 0.58037 0.57633s-0.25766 0.57998-0.58037 0.57998-0.58449-0.25954-0.58449-0.57998 0.26178-0.57633 0.58449-0.57633zm34.132 0.10761c0.15107 0 0.27262 0.04571 0.36433 0.13679 0.09352 0.09108 0.15097 0.24205 0.17256 0.45276h-1.082c0.01797-0.16965 0.06024-0.29729 0.12678-0.383 0.10431-0.1375 0.2439-0.20655 0.41834-0.20655zm-34.132 0.10031c-0.20493 0-0.37074 0.16493-0.37074 0.36841s0.16581 0.37206 0.37074 0.37206 0.37074-0.16857 0.37074-0.37206-0.16581-0.36841-0.37074-0.36841zm8.7573 1.6141v0.54943h0.55291v-0.54943z" color="#000000" fill="#fff"/>
 </g>
</svg>
