<svg width="553" height="111" viewBox="0 0 553 111" fill="none" xmlns="http://www.w3.org/2000/svg">
  <g clip-path="url(#clip0_1_41)">
    <path d="M222.464 86.2015H208.161V49.8988L192.047 76.4235H190.417L174.303 49.9893V86.2911H160V23.8267H174.303L191.232 51.5283L208.161 23.8267H222.464V86.2015Z" fill="#302F33"/>
    <path d="M277.143 41.6608V86.2015H263.745V82.0363C260.758 85.3858 256.412 87.468 250.438 87.468C238.76 87.468 229.163 77.2383 229.163 63.9307C229.163 50.6231 238.76 40.3934 250.438 40.3934C256.413 40.3934 260.758 42.4755 263.745 45.8251V41.6608H277.143ZM263.745 63.9307C263.745 57.2316 259.309 53.0673 253.153 53.0673C246.997 53.0673 242.562 57.2316 242.562 63.9307C242.562 70.6289 246.997 74.7941 253.153 74.7941C259.309 74.7941 263.745 70.6298 263.745 63.9307Z" fill="#302F33"/>
    <path d="M328.382 58.8611V86.2015H314.984V60.7622C314.984 55.24 311.544 52.6147 307.199 52.6147C302.31 52.6147 298.87 55.5116 298.87 61.7589V86.1101H285.472V41.6608H298.87V45.8251C301.314 42.5661 305.751 40.3934 311.635 40.3934C320.687 40.3934 328.382 46.8209 328.382 58.8611Z" fill="#302F33"/>
    <path d="M381.976 41.6608V84.0279C381.976 98.965 370.298 105.302 358.438 105.302C349.205 105.302 341.419 101.861 337.345 94.5292L348.752 87.9206C350.472 90.9977 353.007 93.5334 358.891 93.5334C365.137 93.5334 368.94 90.3649 368.94 84.0279V79.9542C366.043 83.5753 361.697 85.7479 355.905 85.7479C343.231 85.7479 333.997 75.4277 333.997 63.1159C333.997 50.8032 343.231 40.4839 355.905 40.4839C361.697 40.4839 365.953 42.6566 368.94 46.2777V41.7513H381.976V41.6608ZM368.939 63.0254C368.939 56.8695 364.504 52.7052 358.167 52.7052C351.83 52.7052 347.394 56.8695 347.394 63.0254C347.394 69.1813 351.83 73.3447 358.167 73.3447C364.504 73.3447 368.939 69.1813 368.939 63.0254Z" fill="#302F33"/>
    <path d="M388.221 63.9307C388.221 50.6231 398.723 40.3934 411.85 40.3934C424.977 40.3934 435.478 50.6231 435.478 63.9307C435.478 77.2383 424.977 87.468 411.85 87.468C398.723 87.468 388.221 77.2383 388.221 63.9307ZM422.079 63.9307C422.079 57.5937 417.643 53.4294 411.849 53.4294C406.055 53.4294 401.619 57.5937 401.619 63.9307C401.619 70.2676 406.054 74.4328 411.849 74.4328C417.643 74.4328 422.079 70.2676 422.079 63.9307Z" fill="#302F33"/>
    <path d="M439.461 63.9307C439.461 50.6231 449.962 40.3934 463.089 40.3934C476.215 40.3934 486.718 50.6231 486.718 63.9307C486.718 77.2383 476.215 87.468 463.089 87.468C450.053 87.468 439.461 77.2383 439.461 63.9307ZM473.409 63.9307C473.409 57.5937 468.973 53.4294 463.179 53.4294C457.386 53.4294 452.949 57.5937 452.949 63.9307C452.949 70.2676 457.385 74.4328 463.179 74.4328C468.883 74.4328 473.409 70.2676 473.409 63.9307Z" fill="#302F33"/>
    <path d="M492.962 21.1109H506.36V86.2015H492.962V21.1109Z" fill="#302F33"/>
    <path d="M549 72.8024C549 83.033 540.128 87.468 530.442 87.468C521.57 87.468 514.78 84.1184 511.25 76.8762L522.837 70.2676C524.014 73.6172 526.458 75.5183 530.442 75.5183C533.61 75.5183 535.24 74.5225 535.24 72.7119C535.24 67.8234 513.332 70.3582 513.332 54.9684C513.332 45.2819 521.57 40.3028 530.804 40.3028C538.046 40.3028 544.474 43.4713 548.185 49.8083L536.779 55.9642C535.511 53.6105 533.791 52.0715 530.803 52.0715C528.449 52.0715 527.091 52.9768 527.091 54.6063C527.002 59.7664 549 56.3263 549 72.8024Z" fill="#302F33"/>
    <path d="M56.3338 77.9028C52.6992 65.1054 52.7554 52.3437 55.8104 41.3202C52.4035 36.4621 48.9759 31.6189 45.5069 26.8114C38.2554 16.7595 25.9054 22.0632 20.662 29.1082C18.0832 32.3707 10.5034 43.6527 5.30438 52.5101C-8.1635 73.9302 13.5081 83.9762 22.0283 77.6889C26.8222 74.153 29.1911 69.4584 32.4767 63.6168C32.7163 63.7892 50.4901 90.5576 58.6879 101.703C62.1983 106.475 67.7049 108.32 73.2441 107.449C65.7264 99.8666 59.6964 89.7375 56.3338 77.9028Z" fill="#FE5E6A"/>
    <path d="M19.3151 73.2113C21.2209 79.1589 -4.86625 75.3253 5.61881 56.1807C10.1768 47.8581 17.4189 40.3717 17.4189 40.3717C17.4189 40.3717 13.0228 53.5745 19.3151 73.2113Z" fill="#FE8E36"/>
    <path d="M54.6292 18.7087C55.0156 17.5395 56.5462 16.8659 57.4408 18.2131C58.2076 19.3763 58.5434 20.2547 59.4588 21.7354C59.539 21.8867 59.6342 21.9995 59.7709 22.0914C60.3861 22.4861 61.3193 23.1419 61.4233 23.2101C61.6284 23.7739 60.4307 26.0825 58.8763 25.1448C58.7039 25.041 58.1303 24.6434 58.0411 24.584C57.9193 24.5128 57.8479 24.498 57.7201 24.4831C56.2728 24.3348 53.9427 24.0736 52.415 23.7739C51.6036 22.5721 52.5042 21.1063 53.4225 21.1923C54.1745 21.2606 55.5149 21.5573 56.2549 21.676C56.3441 21.6938 56.4243 21.7087 56.5105 21.7265C56.5254 21.7057 56.5373 21.6849 56.5551 21.676C56.3857 21.3911 55.0483 19.4624 54.6292 18.7087Z" fill="#FE5E6A"/>
    <path d="M57.096 15.5929C57.946 14.4861 60.1216 12.2309 61.2212 11.2339C61.7532 11.3111 63.4027 12.5692 62.0296 14.0262C61.7205 14.3526 61.5898 14.4921 60.8557 15.2725C60.9538 15.3645 61.0489 15.4535 61.1707 15.5692C61.5006 15.2191 62.3774 14.1568 63.0253 13.7977C64.1725 14.1924 64.6124 15.133 63.8158 16.0588C63.5365 16.3793 63.3522 16.5484 62.8232 17.1122C62.9569 17.2369 63.0669 17.3407 63.1917 17.4594C63.2304 17.4179 63.2779 17.3674 63.3225 17.3199C63.9318 16.6731 64.544 16.0262 65.1533 15.3793C66.2351 15.5306 67.1356 16.6731 66.2024 17.9639C65.7952 18.5277 64.3181 20.1181 63.804 20.4564C63.1234 20.8867 62.4814 20.7532 61.6135 20.0291C60.7398 19.2903 58.0055 16.676 57.096 15.5929Z" fill="#FE5E6A"/>
    <path d="M64.0328 9.06475C64.7401 8.0974 66.4491 6.22797 68.5682 7.55438C69.5727 8.18345 72.0187 10.0618 73.2937 11.2962C73.7277 12.1003 72.2654 14.4149 70.4049 12.946C69.965 13.2309 69.5103 13.5959 69.0675 13.8926C69.1566 14.2576 69.2904 14.673 69.4479 15.0914C68.2204 16.8896 66.6958 16.3793 65.8844 14.6374C65.177 13.0944 64.2082 10.2191 64.0328 9.06475ZM68.7435 11.1716C68.2234 10.7176 67.7033 10.2814 67.1861 9.8333C67.1713 9.85407 67.1505 9.86891 67.1297 9.88374C67.3912 10.5039 67.6409 11.1241 67.9113 11.768C68.2026 11.5603 68.4671 11.3704 68.7435 11.1716Z" fill="#FE5E6A"/>
    <path d="M80.2454 8.26063C80.5723 9.69385 78.8515 10.679 77.3179 9.60187C76.994 9.37932 76.6284 9.13896 75.8467 8.6078C75.7814 8.56329 75.71 8.52175 75.6476 8.48615C75.6357 8.50098 75.6149 8.51878 75.6001 8.52472C75.6595 8.66122 75.7189 8.82442 75.7814 8.98762C76.0221 9.6256 76.2182 10.2102 76.3252 10.6078C75.9894 11.5752 74.2032 12.0529 73.1333 10.4713C72.7112 9.84816 70.931 5.9728 70.7853 4.94313C71.1717 4.00842 74.1854 2.15976 76.1648 2.52178C77.731 2.81555 79.4043 4.67607 78.2185 6.69387C78.1887 6.75025 78.1501 6.80663 78.0996 6.86301C78.6048 7.03808 79.8798 7.87487 80.2454 8.26063ZM74.5063 5.64343C74.6431 5.9639 74.6906 6.08853 74.8125 6.35262C74.8244 6.3823 74.9135 6.4179 74.9432 6.40603C75.1335 6.32295 75.3296 6.24877 75.496 6.13304C75.716 5.99357 75.7606 5.8007 75.6684 5.58705C75.5109 5.22206 74.97 5.12711 74.5063 5.64343Z" fill="#FE5E6A"/>
    <path d="M85.7051 7.98467C84.7213 8.64045 82.2367 9.37042 80.5188 8.47131C79.5202 7.64342 80.0849 5.78586 81.5501 6.16865C82.8162 6.49802 83.6573 6.409 83.6841 5.88378C83.7049 5.53957 83.6781 5.44462 83.057 5.53067C81.7166 5.70871 80.1354 5.25768 79.5618 3.77994C79.3122 3.11822 79.2557 1.45947 81.1013 0.530695C82.1148 0.0143767 83.6365 -0.157729 84.433 0.159777C86.0558 0.806658 85.5951 2.34374 84.7065 2.75917C83.9575 2.15086 82.091 2.4476 82.2248 3.1657C82.2634 3.34374 82.4061 3.42386 82.8341 3.39418C84.0556 3.29923 84.7213 3.35561 85.0512 3.4743C87.3872 4.32296 87.1079 7.03808 85.7051 7.98467Z" fill="#FE5E6A"/>
    <path d="M103.041 106.894C124.137 103.394 137.62 78.8134 133.157 51.9908C128.693 25.1682 107.973 6.26092 86.8776 9.76028C65.7819 13.2596 52.2987 37.8404 56.7622 64.663C61.2257 91.4856 81.9455 110.393 103.041 106.894Z" fill="#FE5E6A"/>
    <path d="M102.746 91.2913C121.784 88.1333 134.244 67.7099 130.577 45.6744C126.91 23.6388 108.505 8.33549 89.4671 11.4934C70.4295 14.6514 57.9689 35.0748 61.6358 57.1103C65.3027 79.1459 83.7084 94.4492 102.746 91.2913Z" fill="#FE8E36"/>
    <path d="M105.037 80.5663C121.027 77.9139 131.467 60.604 128.355 41.9037C125.243 23.2034 109.758 10.194 93.7676 12.8465C77.7773 15.4989 67.3374 32.8088 70.4492 51.5091C73.5611 70.2094 89.0464 83.2188 105.037 80.5663Z" fill="#FFBE02"/>
    <path d="M13.1018 68.9216C14.3211 73.9156 0.321869 69.2032 8.57946 53.5099C12.1687 46.6873 15.1655 43.2048 15.1655 43.2048C15.1655 43.2048 9.55835 54.4228 13.1018 68.9216Z" fill="#FFBE02"/>
  </g>
  <defs>
    <clipPath id="clip0_1_41">
      <rect width="552.301" height="110.3" fill="white"/>
    </clipPath>
  </defs>
</svg>
